<svg xmlns="http://www.w3.org/2000/svg" viewBox="0 0 371.64 131.64" width="743" height="263">
  <path d="M33.15580379962921 0V108.274169921875L286.8655205965042 391.884765625H36.39725887775421V503.503662109375H442.1567803621292V395.2294921875L185.5161553621292 111.618896484375H447.1567803621292V0Z" transform="translate(21.600 108.600) scale(0.120000 -0.120000)" fill="#f5f5f0"/>
  <path d="M236.0086669921875 -12Q173.4831648170948 -12 132.4401960670948 8.49591064453125Q91.3972273170948 28.9918212890625 71.47053579986095 63.73785400390625Q51.543844282627106 98.48388671875 51.543844282627106 139.984130859375Q51.543844282627106 186.1052351295948 75.1467978931357 221.0387781317438Q98.74975150364429 255.97232113389282 146.59984343368993 275.84498625054016Q194.44993536373556 295.7176513671875 266.4794687444214 295.7176513671875H390.5175886452198Q390.5175886452198 333.1497907936573 380.9145236226117 357.3444690903028Q371.31145860000356 381.5391473869483 350.2061797307759 393.6774106075367Q329.1009008615482 405.815673828125 294.3011685013771 405.815673828125Q256.4130754172802 405.815673828125 229.84003211557865 389.21649695932865Q203.2669888138771 372.6173200905323 197.0255337357521 339.1173516511917H65.8895474076271Q71.38578414358199 393.1746041716599 101.69771384913474 432.5247463107836Q132.0096435546875 471.8748884499073 182.2763671875 493.68927527964115Q232.5430908203125 515.503662109375 294.8873501420021 515.503662109375Q366.29690776455806 515.503662109375 418.04516253393626 491.76220703125Q469.7934173033145 468.020751953125 497.65440434145466 422.8138427734375Q525.5153913795948 377.60693359375 525.5153913795948 312.4001570045948V0H411.8274030983448L396.8623152077198 76.9403076171875Q386.38334446345885 57.430976352814966 371.04952135282315 41.26302404290643Q355.7156982421875 25.095071732997894 335.82343581318855 13.082081764936447Q315.9311733841896 1.069091796875 291.088860844514 -5.4654541015625Q266.2465483048383 -12 236.0086669921875 -12ZM268.1432754858567 92.412353515625Q294.1198835670948 92.412353515625 314.58137038350105 101.76177978515625Q335.0428571999073 111.1112060546875 349.89228346943855 127.65028098851442Q364.7417097389698 144.18935592234135 373.5263777077198 165.8027892071009Q382.3110456764698 187.4162224918604 385.2419538795948 211.78683784604073V213.1322021484375H281.8534040749073Q251.378662109375 213.1322021484375 231.8352103382349 205.31732177734375Q212.2917585670948 197.50244140625 203.17524771392345 183.6485648304224Q194.0587368607521 169.7946882545948 194.0587368607521 151.6044921875Q194.0587368607521 132.4744873046875 203.24817881749493 119.21533203125Q212.43762077423779 105.9561767578125 229.14253715583442 99.18426513671875Q245.84745353743108 92.412353515625 268.1432754858567 92.412353515625Z" transform="translate(80.400 108.600) scale(0.120000 -0.120000)" fill="#f5f5f0"/>
  <path d="M200.7867747247219 0 16.37992489337921 503.503662109375H158.4121409356594L283.1991282403469 127.308349609375L408.3999339044094 503.503662109375H548.9148264825344L364.6114817559719 0Z" transform="translate(150.720 108.600) scale(0.120000 -0.120000)" fill="#f5f5f0"/>
  <path d="M69.45768368244171 0V503.503662109375H204.4554864168167V0ZM137.2496758699417 572.900634765625Q100.52604305744171 572.900634765625 77.28495419025421 594.67626953125Q54.04386532306671 616.451904296875 54.04386532306671 649.072265625Q54.04386532306671 682.27880859375 77.28495419025421 703.640625Q100.52604305744171 725.00244140625 137.2496758699417 725.00244140625Q174.1456719636917 725.00244140625 197.5936700105667 703.640625Q221.0416680574417 682.27880859375 221.0416680574417 649.072265625Q221.0416680574417 616.451904296875 197.5936700105667 594.67626953125Q174.1456719636917 572.900634765625 137.2496758699417 572.900634765625Z" transform="translate(218.520 108.600) scale(0.120000 -0.120000)" fill="#f5f5f0"/>
  <path d="M271.6634416282177 -12Q202.6277970969677 -12 151.94267746806145 10.142267689108849Q101.2575578391552 32.2845353782177 72.3444876819849 70.9139299094677Q43.431417524814606 109.5433244407177 38.690206587314606 158.931396484375H173.3432827591896Q177.6706753373146 140.3016357421875 189.78694204986095 124.8443550914526Q201.9032087624073 109.3870744407177 222.1276908069849 100.31353233754635Q242.3521728515625 91.239990234375 269.7325334250927 91.239990234375Q296.7327986061573 91.239990234375 314.1125646084547 98.80908203125Q331.4923306107521 106.378173828125 339.93660551309586 118.97772216796875Q348.3808804154396 131.5772705078125 348.3808804154396 145.793701171875Q348.3808804154396 167.1651611328125 336.2256069779396 178.4329833984375Q324.0703335404396 189.7008056640625 300.8115392178297 196.8475394397974Q277.5527448952198 203.9942732155323 244.9400634765625 210.5111083984375Q209.0936279296875 218.1230363547802 174.7054443359375 228.44646690785885Q140.3172607421875 238.7698974609375 113.04608680307865 254.89520263671875Q85.7749128639698 271.0205078125 69.7581944912672 296.12859055399895Q53.741476118564606 321.2366732954979 53.741476118564606 358.1851491034031Q53.741476118564606 402.6507463157177 78.0432339310646 438.4437203258276Q102.3449917435646 474.2366943359375 148.25447134673595 494.87017822265625Q194.1639509499073 515.503662109375 258.5604248046875 515.503662109375Q349.7590437233448 515.503662109375 403.01313833892345 474.52533484995365Q456.2672329545021 433.5470075905323 465.6897183060646 361.8057966530323H338.7260952591896Q333.3036099076271 385.4873152077198 312.46260648965836 398.5824027210474Q291.6216030716896 411.677490234375 257.8533725142479 411.677490234375Q222.1800642311573 411.677490234375 203.32185415923595 398.6857804954052Q184.4636440873146 385.6940707564354 184.4636440873146 365.3913848102093Q184.4636440873146 351.2529991567135 196.51921555399895 340.2956332564354Q208.5747870206833 329.3382673561573 231.71281172335148 321.49739652872086Q254.85083642601967 313.6565257012844 288.03331050276756 306.5963345170021Q346.3885077238083 294.708740234375 390.09977670013905 279.59221886098385Q433.8110456764698 264.4756974875927 458.84065298736095 235.7597603648901Q483.8702602982521 207.0438232421875 483.6201382279396 153.3798828125Q484.3700161576271 104.8704833984375 458.2751675248146 67.49541710317135Q432.1803188920021 30.120350807905197 384.66743521392345 9.060175403952599Q337.1545515358448 -12 271.6634416282177 -12Z" transform="translate(251.400 108.600) scale(0.120000 -0.120000)" fill="#f5f5f0"/>
  <circle cx="336.840" cy="95.400" r="13.200" fill="#00c853"/>
</svg>
