<svg width="259" height="74" viewBox="0 0 259 74" fill="none" xmlns="http://www.w3.org/2000/svg">
<path d="M0.982813 72V55.2L35.5828 15.4V13.8H1.98281V2H49.3828V18.8L14.7828 58.6V60.2H49.5828V72H0.982813ZM55.8 72L74.2 2H97.2L115.6 72H102L98.2 56.6H73.2L69.4 72H55.8ZM76.3 44.4H95.1L86.6 10.3H84.8L76.3 44.4ZM132.389 72L114.589 2H128.189L142.989 63.5H144.389L159.189 2H172.789L154.989 72H132.389ZM181.205 72V2H194.405V72H181.205ZM231.873 73.4C226.473 73.4 221.706 72.4333 217.573 70.5C213.439 68.5667 210.206 65.8 207.873 62.2C205.539 58.6 204.373 54.2667 204.373 49.2V46.4H217.373V49.2C217.373 53.4 218.673 56.5667 221.273 58.7C223.873 60.7667 227.406 61.8 231.873 61.8C236.406 61.8 239.773 60.9 241.973 59.1C244.239 57.3 245.373 55 245.373 52.2C245.373 50.2667 244.806 48.7 243.673 47.5C242.606 46.3 241.006 45.3333 238.873 44.6C236.806 43.8 234.273 43.0667 231.273 42.4L228.973 41.9C224.173 40.8333 220.039 39.5 216.573 37.9C213.173 36.2333 210.539 34.0667 208.673 31.4C206.873 28.7333 205.973 25.2667 205.973 21C205.973 16.7333 206.973 13.1 208.973 10.1C211.039 7.03333 213.906 4.7 217.573 3.1C221.306 1.43333 225.673 0.599995 230.673 0.599995C235.673 0.599995 240.106 1.46666 243.973 3.2C247.906 4.86666 250.973 7.4 253.173 10.8C255.439 14.1333 256.573 18.3333 256.573 23.4V26.4H243.573V23.4C243.573 20.7333 243.039 18.6 241.973 17C240.973 15.3333 239.506 14.1333 237.573 13.4C235.639 12.6 233.339 12.2 230.673 12.2C226.673 12.2 223.706 12.9667 221.773 14.5C219.906 15.9667 218.973 18 218.973 20.6C218.973 22.3333 219.406 23.8 220.273 25C221.206 26.2 222.573 27.2 224.373 28C226.173 28.8 228.473 29.5 231.273 30.1L233.573 30.6C238.573 31.6667 242.906 33.0333 246.573 34.7C250.306 36.3667 253.206 38.5667 255.273 41.3C257.339 44.0333 258.373 47.5333 258.373 51.8C258.373 56.0667 257.273 59.8333 255.073 63.1C252.939 66.3 249.873 68.8333 245.873 70.7C241.939 72.5 237.273 73.4 231.873 73.4Z" fill="black"/>
</svg>
