<svg preserveAspectRatio="xMidYMid meet" viewBox="0 0 197.51 197.568" fill="none" xmlns="http://www.w3.org/2000/svg">
<g id="Group">
<path id="Vector" d="M98.9797 0H98.5299C44.1133 0 0 44.1264 0 98.559V99.0089C0 153.441 44.1133 197.568 98.5299 197.568H98.9797C153.396 197.568 197.51 153.441 197.51 99.0089V98.559C197.51 44.1264 153.396 0 98.9797 0Z" fill="var(--fill-0, #00B0F2)"/>
<path id="Vector_2" d="M37.4079 95.4166C37.6847 95.2782 37.9616 95.1466 38.2315 95.022C42.923 92.8486 47.6769 90.8136 52.4238 88.7786C52.6799 88.7786 53.1088 88.481 53.351 88.3841C53.7177 88.2249 54.0845 88.0726 54.4513 87.9134L56.5618 87.0066C57.9734 86.4044 59.378 85.8023 60.7897 85.2001C63.606 83.9957 66.4223 82.7913 69.2386 81.58C74.8713 79.1712 80.511 76.7555 86.1436 74.3467C91.7763 71.938 97.4158 69.5223 103.048 67.1135C108.681 64.7047 114.321 62.289 119.953 59.8803C125.586 57.4715 131.226 55.0558 136.858 52.647C138.111 52.1071 139.467 51.3042 140.809 51.0689C141.937 50.8681 143.037 50.4805 144.172 50.2659C146.324 49.8575 148.698 49.6914 150.76 50.5843C151.473 50.8958 152.13 51.3319 152.677 51.8787C155.292 54.4674 154.926 58.7174 154.372 62.3582C150.518 87.7334 146.663 113.116 142.802 138.491C142.276 141.972 141.557 145.793 138.81 147.994C136.485 149.856 133.177 150.064 130.305 149.275C127.433 148.479 124.901 146.811 122.417 145.17C112.113 138.345 101.803 131.52 91.4995 124.696C89.0499 123.076 86.3236 120.958 86.3513 118.016C86.3651 116.244 87.4237 114.666 88.5032 113.261C97.4573 101.577 110.376 93.5477 119.988 82.4037C121.344 80.8324 122.41 77.9945 120.548 77.0878C119.441 76.5479 118.168 77.2816 117.158 77.9807C104.453 86.8059 91.7555 95.6381 79.0509 104.463C74.906 107.343 70.5604 110.305 65.5644 111.011C61.0942 111.648 56.5964 110.402 52.2716 109.129C48.6457 108.063 45.0265 106.969 41.4214 105.841C39.5046 105.245 37.5255 104.602 36.0447 103.252C34.5639 101.902 33.7129 99.6319 34.6055 97.8323C35.166 96.704 36.2524 95.9911 37.3942 95.4097L37.4079 95.4166Z" fill="var(--fill-0, #FEFFFC)"/>
</g>
</svg>
