<svg preserveAspectRatio="xMidYMid meet" viewBox="0 0 197.51 197.568" fill="none" xmlns="http://www.w3.org/2000/svg">
<g id="Group">
<path id="Vector" d="M98.9798 0H98.53C44.1134 0 0 44.1264 0 98.559V99.0089C0 153.441 44.1134 197.568 98.53 197.568H98.9798C153.396 197.568 197.51 153.441 197.51 99.0089V98.559C197.51 44.1264 153.396 0 98.9798 0Z" fill="var(--fill-0, black)"/>
<g id="Group_2">
<path id="Vector_2" d="M148.829 78.4652V97.1193C145.57 96.8009 141.335 96.0603 136.651 94.3437C130.534 92.101 125.981 89.0347 122.998 86.6605V124.363L122.922 124.246C122.97 124.993 122.998 125.755 122.998 126.523C122.998 145.246 107.768 160.488 89.043 160.488C70.3182 160.488 55.0879 145.246 55.0879 126.523C55.0879 107.8 70.3182 92.5509 89.043 92.5509C90.8767 92.5509 92.6759 92.6963 94.4335 92.9801V111.364C92.7451 110.762 90.9321 110.437 89.043 110.437C80.1789 110.437 72.9616 117.649 72.9616 126.523C72.9616 135.397 80.1789 142.609 89.043 142.609C97.9072 142.609 105.124 135.39 105.124 126.523C105.124 126.191 105.118 125.858 105.097 125.526V52.2594H123.732C123.801 53.8375 123.863 55.4295 123.932 57.0077C124.057 60.1156 125.164 63.0988 127.095 65.5422C129.357 68.4148 132.7 71.751 137.391 74.4159C141.785 76.9078 145.909 77.9737 148.829 78.479V78.4652Z" fill="var(--fill-0, #FF004F)"/>
<path id="Vector_3" d="M142.422 63.3203V81.9745C139.163 81.6561 134.928 80.9154 130.243 79.1988C124.126 76.9562 119.573 73.8898 116.59 71.5157V109.219L116.514 109.101C116.563 109.848 116.59 110.61 116.59 111.378C116.59 130.101 101.36 145.343 82.6354 145.343C63.9106 145.343 48.6803 130.101 48.6803 111.378C48.6803 92.6547 63.9106 77.4061 82.6354 77.4061C84.4691 77.4061 86.2682 77.5514 88.0258 77.8352V96.2194C86.3374 95.6172 84.5245 95.2919 82.6354 95.2919C73.7712 95.2919 66.5539 102.504 66.5539 111.378C66.5539 120.252 73.7712 127.464 82.6354 127.464C91.4995 127.464 98.7168 120.245 98.7168 111.378C98.7168 111.046 98.7099 110.714 98.6891 110.381V37.1007H117.324C117.393 38.6788 117.455 40.2708 117.525 41.849C117.649 44.9569 118.756 47.9402 120.687 50.3835C122.95 53.2561 126.292 56.5924 130.983 59.2572C135.377 61.7421 139.502 62.815 142.422 63.3203Z" fill="var(--fill-0, #00F7EF)"/>
<path id="Vector_4" d="M146.497 71.4742V90.1284C143.238 89.81 139.003 89.0693 134.319 87.3527C128.202 85.1101 123.649 82.0437 120.666 79.6696V117.372L120.59 117.255C120.638 118.002 120.666 118.764 120.666 119.532C120.666 138.255 105.436 153.497 86.711 153.497C67.9863 153.497 52.756 138.255 52.756 119.532C52.756 100.809 67.9863 85.56 86.711 85.56C88.5448 85.56 90.3439 85.7053 92.1015 85.9891V104.373C90.4131 103.771 88.6001 103.446 86.711 103.446C77.8469 103.446 70.6296 110.658 70.6296 119.532C70.6296 128.406 77.8469 135.618 86.711 135.618C95.5752 135.618 102.792 128.399 102.792 119.532C102.792 119.2 102.786 118.868 102.765 118.535V45.2684H121.4C121.469 46.8466 121.531 48.4386 121.6 50.0167C121.725 53.1246 122.832 56.1079 124.763 58.5513C127.025 61.4238 130.368 64.7601 135.059 67.425C139.453 69.9099 143.577 70.9828 146.497 71.488V71.4742Z" fill="var(--fill-0, white)"/>
</g>
</g>
</svg>
