<svg preserveAspectRatio="xMidYMid meet" viewBox="0 0 197.51 197.568" fill="none" xmlns="http://www.w3.org/2000/svg">
<g id="Group">
<path id="Vector" d="M98.9797 0H98.53C44.1135 0 0 44.1264 0 98.559V99.0089C0 153.441 44.1135 197.568 98.53 197.568H98.9797C153.396 197.568 197.51 153.441 197.51 99.0089V98.559C197.51 44.1264 153.396 0 98.9797 0Z" fill="var(--fill-0, #007EBB)"/>
<g id="Group_2">
<path id="Vector_2" d="M47.1025 65.6736C44.5007 63.2579 43.2068 60.2677 43.2068 56.71C43.2068 53.1522 44.5077 50.0305 47.1025 47.6078C49.7044 45.1921 53.0535 43.9808 57.1569 43.9808C61.2603 43.9808 64.478 45.1921 67.0729 47.6078C69.6748 50.0235 70.9687 53.0622 70.9687 56.71C70.9687 60.3577 69.6678 63.2579 67.0729 65.6736C64.4711 68.0893 61.1704 69.3006 57.1569 69.3006C53.1435 69.3006 49.7044 68.0893 47.1025 65.6736ZM68.7821 79.531V153.594H45.3865V79.531H68.7821Z" fill="var(--fill-0, #FEFFFC)"/>
<path id="Vector_3" d="M146.664 86.8473C151.763 92.3847 154.31 99.9848 154.31 109.661V152.286H132.091V112.665C132.091 107.786 130.824 103.993 128.299 101.293C125.773 98.5935 122.369 97.2368 118.106 97.2368C113.843 97.2368 110.439 98.5866 107.913 101.293C105.387 103.993 104.121 107.786 104.121 112.665V152.286H81.7705V79.3233H104.121V89C106.384 85.7744 109.436 83.2272 113.269 81.3514C117.103 79.4756 121.414 78.5412 126.209 78.5412C134.748 78.5412 141.571 81.3099 146.664 86.8473Z" fill="var(--fill-0, #FEFFFC)"/>
</g>
</g>
</svg>
