<svg width="81" height="81" viewBox="0 0 81 81" fill="none" xmlns="http://www.w3.org/2000/svg">
<g clip-path="url(#clip0_1512_7394)">
<g clip-path="url(#clip1_1512_7394)">
<path d="M37.6592 69.3249H36.9694V62.2968C37.8281 53.5137 29.6813 47.4695 27.9523 46.2917L23.5764 34.2151C22.7354 31.8945 20.3046 30.6194 17.9209 31.2504C15.444 31.9059 13.9485 34.379 14.5162 36.8806L16.492 45.5906L10.3864 36.2756L10.2895 16.9415C10.2725 13.5291 7.95223 10.5651 4.6475 9.73386C3.00483 9.27572 1.23269 10.6051 1.21037 12.3127L0.181079 38.9181C0.091425 41.2351 0.835656 43.5109 2.27635 45.3257L18.3561 65.5825V69.3251H17.6719C17.0992 69.3251 16.6348 69.7902 16.6348 70.3637V79.9624C16.6348 80.536 17.0992 81.0011 17.6719 81.0011H37.659C38.2317 81.0011 38.6961 80.536 38.6961 79.9624V70.3636C38.6962 69.79 38.2319 69.3249 37.6592 69.3249ZM20.2049 64.5736L3.89981 44.033C2.76771 42.6071 2.18306 40.819 2.2535 38.9984L3.28296 12.3932C3.383 11.8648 3.60818 11.6962 4.14229 11.7485C6.52833 12.3487 8.20319 14.4885 8.21548 16.952L8.31414 36.594C8.31518 36.7948 8.37419 36.9909 8.48427 37.1588L17.9083 51.5364C18.1835 51.9565 18.7199 52.1185 19.1811 51.9222C19.6427 51.7256 19.8977 51.2263 19.7864 50.7365L16.5389 36.4209C16.2203 35.0161 17.0601 33.6271 18.4509 33.2592C19.7898 32.9052 21.1547 33.6209 21.627 34.924L26.1201 47.3236C26.1983 47.5397 26.347 47.7242 26.5409 47.8473C26.6329 47.9058 35.7505 53.7906 34.901 62.1402C34.8975 62.1751 34.8956 62.2103 34.8956 62.2454V69.3251H20.4304V65.2201C20.4302 64.9852 20.3508 64.7573 20.2049 64.5736ZM36.6221 78.9236H18.709V71.402H36.6221V78.9236Z" fill="#006828"/>
<path d="M80.8202 38.918L79.7907 12.3128C79.7684 10.605 77.9963 9.27561 76.3536 9.73392C73.0489 10.5652 70.7288 13.5291 70.7116 16.9415L70.6145 36.2758L64.5089 45.5908L66.4848 36.881C67.0524 34.3792 65.5569 31.9061 63.08 31.2507C60.6965 30.6198 58.2653 31.8945 57.4247 34.2151L53.0486 46.2918C51.3197 47.4695 43.1728 53.5136 44.0315 62.2969V69.325H43.3418C42.7691 69.325 42.3047 69.7901 42.3047 70.3636V79.9623C42.3047 80.5359 42.7691 81.0009 43.3418 81.0009H63.3289C63.9016 81.0009 64.3659 80.5359 64.3659 79.9623V70.3636C64.3659 69.7901 63.9016 69.325 63.3289 69.325H62.6447V65.5824L67.9299 58.9243C68.2865 58.4753 68.2121 57.822 67.7634 57.4649C67.3153 57.108 66.6628 57.1826 66.3065 57.6316L60.7959 64.5735C60.6498 64.7573 60.5705 64.9851 60.5705 65.2198V69.3248H46.1053V62.2451C46.1053 62.21 46.1034 62.1748 46.0999 62.1399C45.2505 53.7903 54.3678 47.9055 54.4592 47.8475C54.6539 47.7245 54.8024 47.5402 54.8808 47.3233L59.3741 34.9237C59.846 33.6204 61.2111 32.9051 62.55 33.2589C63.9409 33.627 64.7808 35.0158 64.462 36.4208L61.2146 50.7362C61.1033 51.226 61.3582 51.7253 61.8198 51.9219C62.2816 52.1186 62.8174 51.956 63.0926 51.5362L72.5167 37.1585C72.6267 36.9908 72.6857 36.7945 72.6868 36.5937L72.7854 16.9517C72.7977 14.4882 74.4726 12.3484 76.8586 11.7482C77.3922 11.6961 77.6181 11.8643 77.718 12.3929L78.7474 38.9979C78.8179 40.8185 78.233 42.6066 77.1011 44.0326L71.6525 50.8968C71.2959 51.3459 71.3704 51.9991 71.819 52.3562C72.2671 52.7131 72.9197 52.6385 73.2759 52.1895L78.7246 45.3253C80.1656 43.5107 80.9098 41.2351 80.8202 38.918ZM62.2923 78.9237H44.3792V71.4021H62.2923V78.9237Z" fill="#006828"/>
<path d="M69.8622 55.8394C70.5303 55.8394 71.072 55.2969 71.072 54.6277C71.072 53.9585 70.5303 53.416 69.8622 53.416C69.194 53.416 68.6523 53.9585 68.6523 54.6277C68.6523 55.2969 69.194 55.8394 69.8622 55.8394Z" fill="#006828"/>
<path d="M40.5089 43.2539C40.2649 43.2539 40.0208 43.1679 39.8251 42.9962C32.4965 36.5759 22.3092 29.2026 18.9352 20.3591C15.6274 12.846 19.7362 3.44428 27.5129 0.801741C34.0578 -1.30893 37.5313 1.02363 40.4971 4.58815C43.463 1.02415 46.9335 -1.30478 53.4795 0.809703C61.2541 3.45501 65.3723 12.8569 62.0684 20.371C58.6988 29.2144 48.5189 36.5783 41.1926 42.996C40.997 43.1679 40.753 43.2539 40.5089 43.2539ZM28.2227 2.75353C21.5127 5.03313 17.9926 13.1477 20.8723 19.6157C23.9146 27.643 33.5645 34.83 40.5089 40.8386C47.4479 34.8363 57.0961 27.6513 60.1312 19.6289C63.0077 13.1591 59.4773 5.04299 52.769 2.76114C45.0871 -0.0447782 41.5692 6.67736 41.4231 6.96484C41.0733 7.71305 39.9951 7.67134 39.5707 6.96259C35.5776 0.294453 29.5417 2.27255 28.2227 2.75353Z" fill="#006828"/>
<path d="M39.4012 28.2325L35.189 19.1841L34.2184 23.1437C34.1045 23.6081 33.6888 23.9347 33.2112 23.9347H28.0586C27.4859 23.9347 27.0215 23.4696 27.0215 22.896C27.0215 22.3225 27.4859 21.8574 28.0586 21.8574H32.3979L33.8769 15.8236C34.0726 14.8912 35.4529 14.7564 35.824 15.6324L40.0459 24.7016L43.4503 11.1024C43.6722 10.0807 45.2274 10.0731 45.4595 11.0924L48.2686 21.8574H53.5069C54.0796 21.8574 54.544 22.3225 54.544 22.896C54.544 23.4696 54.0796 23.9347 53.5069 23.9347H47.4676C46.9958 23.9347 46.5835 23.6157 46.4643 23.1588L44.477 15.5427L41.3467 28.0463C41.2607 28.8445 39.9436 29.2184 39.4012 28.2325Z" fill="#006828"/>
</g>
</g>
<defs>
<clipPath id="clip0_1512_7394">
<rect width="81" height="81" fill="white"/>
</clipPath>
<clipPath id="clip1_1512_7394">
<rect width="81" height="81" fill="white"/>
</clipPath>
</defs>
</svg>
