<svg width="25" height="24" viewBox="0 0 25 24" fill="none" xmlns="http://www.w3.org/2000/svg">
<g clip-path="url(#clip0_1321_7262)">
<path fill-rule="evenodd" clip-rule="evenodd" d="M20.9875 21.5956L16.3888 17.1949L14.895 18.6149C14.6753 18.8399 14.3092 18.8399 14.0748 18.6149L5.60969 10.4884C5.37536 10.2634 5.37536 9.91193 5.60969 9.68698L7.08889 8.26694L2.50482 3.85218C2.06546 4.33021 1.74325 4.86448 1.56751 5.30033C0.63019 7.56395 1.4357 10.7836 3.79363 14.1158C7.32322 19.107 13.1522 22.875 17.3408 22.875C18.7175 22.875 19.9477 22.4814 20.9875 21.5956ZM15.9788 15.9998C16.6232 15.3531 17.0625 14.8891 18.1756 14.8891C19.1568 14.8891 20.226 15.3531 21.0461 16.1404L22.0127 17.0683C24.7954 19.7256 22.496 22.5517 19.9038 23.5499C11.7315 26.6571 -2.76758 12.7239 0.469088 4.8926C1.55286 2.24937 4.52591 0.281002 7.2207 2.868L8.18731 3.79594C9.62257 5.1738 9.91549 7.14216 8.83171 8.18258L6.85456 10.0947L14.4849 17.4198L15.9788 15.9998ZM17.2236 16.3935L21.7491 20.752C22.8036 19.107 21.383 18.0525 20.2113 16.9277C19.4351 16.1826 18.0145 15.6343 17.2969 16.3091L17.2236 16.3935ZM4.54056 2.76958C4.13048 2.76958 3.7497 2.91018 3.38356 3.12107L7.92369 7.46554L7.99692 7.39524C8.62667 6.80473 8.33376 5.51123 7.36716 4.59735C6.50307 3.76782 5.68291 2.76958 4.54056 2.76958ZM21.9102 9.41984H15.7737C15.4515 9.41984 15.1879 9.16677 15.1879 8.85745V2.96641C15.1879 2.22125 16.3595 2.22125 16.3595 2.96641V7.49366L23.9899 0.168524C24.5464 -0.351687 25.3666 0.435659 24.8247 0.95587L17.1797 8.29506H21.9102C22.6864 8.29506 22.6864 9.41984 21.9102 9.41984Z" fill="#006828"/>
</g>
<defs>
<clipPath id="clip0_1321_7262">
<rect width="25" height="24" fill="white"/>
</clipPath>
</defs>
</svg>
