<svg width="29" height="30" viewBox="0 0 29 30" fill="none" xmlns="http://www.w3.org/2000/svg">
<g clip-path="url(#clip0_1321_7253)">
<path d="M28.6683 14.1713L15.301 0.343196C14.8585 -0.11448 14.1413 -0.11448 13.6989 0.343196L0.331632 14.1713C-0.234151 14.7567 -0.0500123 15.7506 0.686429 16.0771L4.00041 17.5463L4.5325 28.8849C4.56167 29.5093 5.05959 30 5.66389 30H23.3359C23.9402 30 24.4382 29.5093 24.4674 28.8849L24.9995 17.5463L28.3135 16.0771C29.049 15.751 29.2348 14.7574 28.6683 14.1713ZM16.9072 27.6562H12.0927V20.8594H16.9072V27.6562ZM23.4561 15.6806C23.0579 15.8572 22.7919 16.2532 22.7709 16.7009L22.2568 27.6562H19.1728V19.6875C19.1728 19.0403 18.6656 18.5156 18.04 18.5156H10.9598C10.3342 18.5156 9.82703 19.0403 9.82703 19.6875V27.6562H6.74312L6.22905 16.7009C6.20804 16.2532 5.94206 15.8572 5.54382 15.6806L3.11688 14.6047L14.4999 2.82915L25.8831 14.6047L23.4561 15.6806Z" fill="#006828"/>
</g>
<defs>
<clipPath id="clip0_1321_7253">
<rect width="29" height="30" fill="white"/>
</clipPath>
</defs>
</svg>
