<svg width="24" height="24" viewBox="0 0 24 24" fill="none" xmlns="http://www.w3.org/2000/svg">
<g clip-path="url(#clip0_1321_7256)">
<path d="M0.5 24.002C0.367 24.002 0.238 23.949 0.143 23.851C0.00600001 23.711 -0.037 23.505 0.034 23.322L1.897 18.477C0.654 16.546 0 14.313 0 12.002C0 5.38501 5.383 0.00201416 12 0.00201416C18.617 0.00201416 24 5.38501 24 12.002C24 18.619 18.617 24.002 12 24.002C9.756 24.002 7.571 23.376 5.667 22.188L0.668 23.973C0.613 23.993 0.557 24.002 0.5 24.002ZM5.73 21.135C5.826 21.135 5.921 21.162 6.003 21.216C7.793 22.385 9.867 23.003 12 23.003C18.065 23.003 23 18.068 23 12.003C23 5.93801 18.065 1.00301 12 1.00301C5.935 1.00301 1 5.93801 1 12.003C1 14.201 1.646 16.323 2.87 18.139C2.961 18.274 2.98 18.446 2.922 18.598L1.358 22.665L5.562 21.164C5.616 21.145 5.673 21.135 5.73 21.135Z" fill="#006828"/>
<path d="M15 18.002C13.429 18.002 10.413 16.123 9.146 14.856C7.879 13.588 6 10.572 6 9.00201C6 7.38601 7.375 6.00201 8.5 6.00201H9.5C9.69 6.00201 9.864 6.11001 9.948 6.28101C9.949 6.28201 10.551 7.50601 10.945 8.27401C11.389 9.14101 10.554 10.161 10.079 10.642C10.249 11.078 10.646 11.942 11.353 12.649C12.06 13.356 12.924 13.754 13.36 13.923C13.84 13.447 14.86 12.611 15.728 13.057C16.496 13.452 17.719 14.053 17.72 14.053C17.892 14.138 18 14.312 18 14.502V15.502C18 16.628 16.615 18.002 15 18.002ZM8.5 7.00201C7.935 7.00201 7 7.93701 7 9.00201C7 10.161 8.634 12.928 9.854 14.148C11.187 15.481 13.928 17.002 15 17.002C16.065 17.002 17 16.067 17 15.502V14.813C16.59 14.611 15.816 14.227 15.271 13.947C15.037 13.821 14.326 14.322 13.875 14.833C13.746 14.979 13.545 15.035 13.361 14.982C13.298 14.964 11.817 14.526 10.646 13.355C9.475 12.184 9.038 10.703 9.019 10.64C8.965 10.454 9.024 10.254 9.168 10.126C9.678 9.67501 10.176 8.96701 10.054 8.72901C9.775 8.18601 9.392 7.41201 9.19 7.00201H8.5Z" fill="#006828"/>
</g>
<defs>
<clipPath id="clip0_1321_7256">
<rect width="24" height="24" fill="white"/>
</clipPath>
</defs>
</svg>
